<svg height="45px" fill = "#E1B74D" viewBox="0 -52 511.99632 511" width="45px" xmlns="http://www.w3.org/2000/svg"><path d="m507.5625 215.453125c6.511719-26.757813 4.519531-56.601563 2.371094-74.011719-.902344-7.300781-9.105469-11.175781-15.304688-7.210937-10.042968 6.429687-24.171875 16.578125-35.992187 29.210937 9.800781-12.378906 39.628906-53.378906 34.601562-88.246094-3.925781-27.246093-16.886719-54.179687-25.367187-69.523437-3.558594-6.445313-12.621094-6.980469-16.890625-.984375-12.539063 17.605469-32.988281 51.550781-28.769531 80.804688 3.640624 25.25 15.140624 49.910156 23.628906 65.410156-13.332032-19.355469-30.875-35.292969-42.328125-44.621094-5.65625-4.609375-14.183594-1.824219-16.003907 5.242188-5.316406 20.6875-12.132812 59.394531 2.394532 85.148437 11.96875 21.222656 30.449218 39.648437 43.867187 51.382813.339844 8.074218 1.050781 15.421874 1.8125 21.492187l.347657-.085937c-7.851563 3.472656-15.054688 7.957031-20.835938 13.75-14.703125 14.734374-25.953125 33.4375-33.566406 48.566406l-20.203125 14.148437c-31.445313 20.191407-67.941407 30.867188-105.558594 30.867188-38.039063 0-74.882813-10.898438-106.5625-31.519531l-18.4375-12.898438c-7.617187-15.234375-18.972656-34.238281-33.867187-49.167969-5.695313-5.707031-12.777344-10.140625-20.496094-13.59375.765625-6.082031 1.480468-13.453125 1.824218-21.5625 13.417969-11.734375 31.894532-30.15625 43.867188-51.378906 14.527344-25.757813 7.707031-64.460937 2.390625-85.148437-1.816406-7.066407-10.347656-9.851563-16.003906-5.242188-11.347657 9.242188-28.679688 24.976562-41.960938 44.097656 8.441407-15.542968 19.617188-39.796875 23.199219-64.621094 4.21875-29.253906-16.234375-63.199218-28.769531-80.804687-4.273438-5.996094-13.332031-5.460937-16.890625.984375-8.480469 15.34375-21.441406 42.277344-25.371094 69.523438-4.789062 33.238281 22.09375 72.050781 33.109375 86.332031-11.488281-11.867188-24.828125-21.417969-34.429687-27.5625-6.199219-3.96875-14.402344-.089844-15.300782 7.210937-2.1523435 17.40625-4.144531 47.253906 2.367188 74.011719 4.070312 16.730469 16.410156 31.703125 29.5625 43.554687l.746094.1875c-7.308594-.816406-14.066407-1.175781-19.632813-1.300781-7.367187-.164062-12.394531 7.378907-9.375 14.101563 7.1875 15.988281 20.964844 42.546875 40.410156 62.035156 17.550781 17.585938 47.941407 23.070312 69.847657 24.617188l16.21875 11.347656c.132812.09375.265624.183594.398437.269531 36.617187 23.898437 79.203125 36.527344 123.160156 36.527344 43.488281 0 85.6875-12.378907 122.046875-35.804688.160156-.101562.320313-.210937.480469-.320312l17.101563-11.976563c21.949218-1.484375 52.742187-6.90625 70.457031-24.660156 19.445312-19.488281 33.222656-46.042969 40.410156-62.035156 3.019531-6.722656-2.007813-14.265625-9.375-14.101563-5.414063.121094-11.945313.460938-19.023437 1.230469 13.203124-11.871094 25.613281-26.886719 29.695312-43.671875zm-450.292969-49.425781c-.175781.394531-.363281.777344-.53125 1.175781-.042969-.054687-.089843-.105469-.136719-.160156.15625-.238281.378907-.574219.667969-1.015625zm398.183594.941406c-.066406.078125-.132813.15625-.199219.234375-.242187-.578125-.511718-1.140625-.769531-1.710937.46875.726562.800781 1.226562.96875 1.476562zm0 0"/></svg>
